<?xml version="1.0" standalone="no"?><!DOCTYPE svg PUBLIC "-//W3C//DTD SVG 1.1//EN" "http://www.w3.org/Graphics/SVG/1.1/DTD/svg11.dtd"><svg t="1652515291954" class="icon" viewBox="0 0 1024 1024" version="1.1" xmlns="http://www.w3.org/2000/svg" p-id="4229" xmlns:xlink="http://www.w3.org/1999/xlink" width="200" height="200"><defs><style type="text/css">@font-face { font-family: feedback-iconfont; src: url("//at.alicdn.com/t/font_1031158_u69w8yhxdu.woff2?t=1630033759944") format("woff2"), url("//at.alicdn.com/t/font_1031158_u69w8yhxdu.woff?t=1630033759944") format("woff"), url("//at.alicdn.com/t/font_1031158_u69w8yhxdu.ttf?t=1630033759944") format("truetype"); }
</style></defs><path d="M511.5904 1024c-58.0608 0-117.0432-9.9328-174.592-30.9248C71.68 896.512-65.6384 602.2144 30.9248 336.896 127.488 71.5776 421.888-65.6384 687.2064 30.9248a32.0512 32.0512 0 0 1 19.1488 41.0624 32.1024 32.1024 0 0 1-40.96 19.1488C433.152 6.5536 175.616 126.6688 91.0336 358.8096 6.5536 590.848 126.6688 848.4864 358.912 932.9664c232.1408 84.3776 489.7792-35.6352 574.2592-267.776 54.4768-149.7088 24.7808-318.6688-77.5168-440.9344a31.98976 31.98976 0 0 1 49.0496-41.0624C1021.6448 322.9696 1055.5392 516.096 993.28 687.104 917.7088 894.7712 720.7936 1024 511.5904 1024z" p-id="4230" fill="#108dd9"></path><path d="M485.4784 688.0256h-0.4096c-9.3184-0.1024-18.1248-4.3008-24.1664-11.4688L279.552 460.5952a31.97952 31.97952 0 0 1 48.9472-41.1648l157.3888 187.4944L856.064 186.88a32.0512 32.0512 0 0 1 45.1584-2.8672 31.9488 31.9488 0 0 1 2.8672 45.1584L509.44 677.1712c-6.0416 6.8608-14.848 10.8544-23.9616 10.8544z" p-id="4231" fill="#108dd9"></path></svg>